<svg width="114" height="26" viewBox="0 0 114 26" fill="none" xmlns="http://www.w3.org/2000/svg">
<path d="M1.83868 21.2056L0.191344 18.8739H1.38133L2.50028 20.5419L3.6281 18.8739H4.80921L3.15744 21.2056L4.89358 23.6407H3.71247L2.50028 21.8564L1.29253 23.6407H0.11142L1.83868 21.2056Z" fill="white"/>
<path d="M5.00902 18.8739H6.14573L7.14479 21.5762C7.29576 21.9613 7.3964 22.3233 7.44673 22.6623H7.48225C7.50889 22.5043 7.55773 22.3132 7.62878 22.0891C7.69982 21.8621 8.07576 20.7904 8.7566 18.8739H9.88443L7.78419 24.2743C7.40232 25.2655 6.76589 25.7612 5.87488 25.7612C5.64398 25.7612 5.41901 25.7368 5.19996 25.6879V24.8863C5.35684 24.9208 5.53593 24.938 5.73723 24.938C6.24046 24.938 6.5942 24.655 6.79845 24.0889L6.9805 23.6407L5.00902 18.8739Z" fill="white"/>
<path d="M15.3415 25.3259H14.3691V23.6407H11.0034V25.3259H10.0398V22.8563H10.4395C10.7888 22.3707 11.0655 21.7846 11.2698 21.0978C11.477 20.4083 11.5998 19.6669 11.6383 18.8739H14.6222V22.8563H15.3415V25.3259ZM13.5965 22.8563V19.6497H12.5397C12.4835 20.2416 12.3651 20.8249 12.1845 21.3995C12.0069 21.9742 11.7893 22.4598 11.5318 22.8563H13.5965Z" fill="white"/>
<path d="M20.6077 21.2487C20.6077 22.0274 20.4019 22.6351 19.9905 23.0718C19.579 23.5085 19.0062 23.7269 18.2721 23.7269C17.8132 23.7269 17.4077 23.6263 17.0554 23.4252C16.7032 23.2241 16.4323 22.9353 16.2429 22.5589C16.0534 22.1825 15.9587 21.7458 15.9587 21.2487C15.9587 20.4758 16.163 19.8724 16.5715 19.4385C16.98 19.0047 17.5557 18.7877 18.2987 18.7877C19.0092 18.7877 19.5716 19.0104 19.986 19.4558C20.4004 19.8982 20.6077 20.4959 20.6077 21.2487ZM17.0332 21.2487C17.0332 22.3492 17.4521 22.8994 18.2898 22.8994C19.1187 22.8994 19.5331 22.3492 19.5331 21.2487C19.5331 20.1597 19.1157 19.6152 18.281 19.6152C17.8429 19.6152 17.5246 19.756 17.3263 20.0376C17.1309 20.3192 17.0332 20.7229 17.0332 21.2487Z" fill="white"/>
<path d="M24.2309 21.1884V18.8739H25.2033V21.1884L27.0949 18.8739H28.1961L26.2645 21.1797L28.3692 23.6407H27.2192L25.2033 21.2228V23.6407H24.2309V21.2228L22.2195 23.6407H21.0739L23.1741 21.1797L21.247 18.8739H22.3482L24.2309 21.1884Z" fill="white"/>
<path d="M31.2732 23.7269C30.5094 23.7269 29.9115 23.5114 29.4793 23.0804C29.0501 22.6465 28.8355 22.0503 28.8355 21.2918C28.8355 20.5131 29.0353 19.9011 29.4349 19.4558C29.8345 19.0104 30.3836 18.7877 31.0822 18.7877C31.7305 18.7877 32.2426 18.9788 32.6185 19.3609C32.9945 19.7431 33.1825 20.2689 33.1825 20.9384V21.4857H29.91C29.9248 21.9483 30.0536 22.3046 30.2963 22.5546C30.539 22.8017 30.8809 22.9253 31.322 22.9253C31.6121 22.9253 31.8815 22.8994 32.1301 22.8477C32.3817 22.7931 32.6511 22.704 32.9382 22.5805V23.4037C32.6837 23.5215 32.4261 23.6048 32.1656 23.6536C31.9051 23.7025 31.6077 23.7269 31.2732 23.7269ZM31.0822 19.5549C30.7507 19.5549 30.4843 19.6569 30.283 19.8609C30.0846 20.0649 29.9662 20.3623 29.9278 20.753H32.1568C32.1508 20.3594 32.0532 20.062 31.8637 19.8609C31.6743 19.6569 31.4138 19.5549 31.0822 19.5549Z" fill="white"/>
<path d="M36.3484 23.7269C35.6054 23.7269 35.04 23.5171 34.6522 23.0976C34.2674 22.6753 34.075 22.0704 34.075 21.2832C34.075 20.4815 34.2762 19.8652 34.6788 19.4342C35.0844 19.0032 35.669 18.7877 36.4327 18.7877C36.9508 18.7877 37.417 18.8811 37.8314 19.0679L37.5162 19.8824C37.0751 19.7158 36.711 19.6325 36.4239 19.6325C35.5743 19.6325 35.1495 20.1798 35.1495 21.2745C35.1495 21.809 35.2546 22.2112 35.4648 22.4813C35.6779 22.7485 35.9887 22.8822 36.3972 22.8822C36.862 22.8822 37.3015 22.7701 37.716 22.546V23.4295C37.5295 23.5358 37.3297 23.612 37.1165 23.6579C36.9064 23.7039 36.6503 23.7269 36.3484 23.7269Z" fill="white"/>
<path d="M42.5603 18.8739V19.6669H40.9618V23.6407H39.9139V19.6669H38.3154V18.8739H42.5603Z" fill="white"/>
<path d="M47.7687 20.0936C47.7687 20.6568 47.4298 20.9973 46.7519 21.1151V21.1496C47.1308 21.1927 47.4209 21.309 47.6222 21.4987C47.8235 21.6883 47.9241 21.934 47.9241 22.2357C47.9241 22.6868 47.7465 23.0344 47.3913 23.2787C47.039 23.52 46.5254 23.6407 45.8505 23.6407H43.5061V18.8739H45.8416C47.1264 18.8739 47.7687 19.2805 47.7687 20.0936ZM46.854 22.1753C46.854 21.9455 46.7623 21.7831 46.5787 21.6883C46.3952 21.5906 46.1199 21.5418 45.7528 21.5418H44.5495V22.8908H45.7795C46.4958 22.8908 46.854 22.6523 46.854 22.1753ZM46.7253 20.1798C46.7253 19.9902 46.6483 19.8537 46.4944 19.7704C46.3434 19.6842 46.1169 19.6411 45.815 19.6411H44.5495V20.7875H45.6596C46.0089 20.7875 46.2738 20.7444 46.4544 20.6582C46.635 20.5692 46.7253 20.4097 46.7253 20.1798Z" fill="white"/>
<path d="M51.1477 23.7269C50.384 23.7269 49.7861 23.5114 49.3539 23.0804C48.9247 22.6465 48.71 22.0503 48.71 21.2918C48.71 20.5131 48.9099 19.9011 49.3095 19.4558C49.7091 19.0104 50.2582 18.7877 50.9568 18.7877C51.6051 18.7877 52.1172 18.9788 52.4931 19.3609C52.8691 19.7431 53.0571 20.2689 53.0571 20.9384V21.4857H49.7846C49.7994 21.9483 49.9282 22.3046 50.1709 22.5546C50.4136 22.8017 50.7555 22.9253 51.1966 22.9253C51.4867 22.9253 51.7561 22.8994 52.0047 22.8477C52.2563 22.7931 52.5257 22.704 52.8128 22.5805V23.4037C52.5583 23.5215 52.3007 23.6048 52.0402 23.6536C51.7797 23.7025 51.4822 23.7269 51.1477 23.7269ZM50.9568 19.5549C50.6253 19.5549 50.3589 19.6569 50.1576 19.8609C49.9592 20.0649 49.8408 20.3623 49.8024 20.753H52.0314C52.0254 20.3594 51.9278 20.062 51.7383 19.8609C51.5489 19.6569 51.2884 19.5549 50.9568 19.5549Z" fill="white"/>
<path d="M55.2861 18.8739V20.7875H57.5994V18.8739H58.6429V23.6407H57.5994V21.5849H55.2861V23.6407H54.2426V18.8739H55.2861Z" fill="white"/>
<path d="M61.1827 18.8739V20.7875H63.4961V18.8739H64.5396V23.6407H63.4961V21.5849H61.1827V23.6407H60.1393V18.8739H61.1827Z" fill="white"/>
<path d="M69.1086 23.6407L68.8999 22.977H68.8644C68.6276 23.2672 68.3893 23.4654 68.1495 23.5717C67.9097 23.6752 67.6019 23.7269 67.2259 23.7269C66.7434 23.7269 66.366 23.6005 66.0937 23.3476C65.8243 23.0948 65.6896 22.7371 65.6896 22.2745C65.6896 21.7831 65.8776 21.4125 66.2535 21.1625C66.6294 20.9125 67.2022 20.776 67.9719 20.753L68.82 20.7272V20.4729C68.82 20.1683 68.746 19.9413 68.598 19.7919C68.4529 19.6396 68.2265 19.5635 67.9186 19.5635C67.667 19.5635 67.4257 19.5994 67.1948 19.6713C66.964 19.7431 66.7419 19.8278 66.5288 19.9255L66.1913 19.2015C66.4578 19.0664 66.7493 18.9644 67.0661 18.8955C67.3828 18.8236 67.6818 18.7877 67.963 18.7877C68.5876 18.7877 69.0583 18.9199 69.375 19.1842C69.6947 19.4486 69.8546 19.8638 69.8546 20.4298V23.6407H69.1086ZM67.5545 22.9511C67.9334 22.9511 68.2368 22.8491 68.4648 22.6451C68.6956 22.4382 68.8111 22.1495 68.8111 21.7788V21.3651L68.1806 21.3909C67.6892 21.4082 67.331 21.4886 67.106 21.6323C66.884 21.7731 66.773 21.99 66.773 22.2831C66.773 22.4957 66.8381 22.6609 66.9684 22.7787C67.0986 22.8936 67.294 22.9511 67.5545 22.9511Z" fill="white"/>
<path d="M71.8127 23.6407H70.6449L72.0125 21.6883C71.681 21.5964 71.4205 21.4326 71.231 21.197C71.0416 20.9585 70.9469 20.664 70.9469 20.3134C70.9469 19.8623 71.1126 19.5104 71.4442 19.2575C71.7757 19.0018 72.2286 18.8739 72.8029 18.8739H75.0408V23.6407H73.9929V21.8047H73.0027L71.8127 23.6407ZM71.9637 20.3221C71.9637 20.5663 72.0584 20.7502 72.2479 20.8737C72.4403 20.9944 72.6978 21.0547 73.0205 21.0547H73.9929V19.6411H72.8562C72.572 19.6411 72.3515 19.7 72.1946 19.8178C72.0406 19.9356 71.9637 20.1037 71.9637 20.3221Z" fill="white"/>
<path d="M82.0697 18.8739V19.6669H79.9384V23.6407H78.8949V18.8739H82.0697Z" fill="white"/>
<path d="M86.0881 23.6407L85.8794 22.977H85.8439C85.6071 23.2672 85.3688 23.4654 85.129 23.5717C84.8893 23.6752 84.5814 23.7269 84.2055 23.7269C83.723 23.7269 83.3455 23.6005 83.0732 23.3476C82.8038 23.0948 82.6691 22.7371 82.6691 22.2745C82.6691 21.7831 82.8571 21.4125 83.2331 21.1625C83.609 20.9125 84.1818 20.776 84.9514 20.753L85.7995 20.7272V20.4729C85.7995 20.1683 85.7255 19.9413 85.5775 19.7919C85.4325 19.6396 85.206 19.5635 84.8981 19.5635C84.6465 19.5635 84.4053 19.5994 84.1744 19.6713C83.9435 19.7431 83.7215 19.8278 83.5084 19.9255L83.1709 19.2015C83.4373 19.0664 83.7289 18.9644 84.0456 18.8955C84.3624 18.8236 84.6613 18.7877 84.9426 18.7877C85.5671 18.7877 86.0378 18.9199 86.3546 19.1842C86.6743 19.4486 86.8341 19.8638 86.8341 20.4298V23.6407H86.0881ZM84.534 22.9511C84.9129 22.9511 85.2164 22.8491 85.4443 22.6451C85.6752 22.4382 85.7906 22.1495 85.7906 21.7788V21.3651L85.1601 21.3909C84.6687 21.4082 84.3106 21.4886 84.0856 21.6323C83.8636 21.7731 83.7526 21.99 83.7526 22.2831C83.7526 22.4957 83.8177 22.6609 83.9479 22.7787C84.0782 22.8936 84.2736 22.9511 84.534 22.9511Z" fill="white"/>
<path d="M92.3267 23.6407H91.2744V19.6669H89.9201C89.8372 20.6898 89.7247 21.4886 89.5826 22.0633C89.4435 22.6379 89.26 23.0574 89.032 23.3218C88.8071 23.5861 88.514 23.7183 88.1529 23.7183C87.9249 23.7183 87.734 23.6867 87.5801 23.6235V22.8304C87.6896 22.8707 87.7991 22.8908 87.9086 22.8908C88.2106 22.8908 88.4474 22.5618 88.6191 21.9038C88.7937 21.2429 88.9299 20.233 89.0276 18.8739H92.3267V23.6407Z" fill="white"/>
<path d="M95.9677 23.7269C95.204 23.7269 94.606 23.5114 94.1738 23.0804C93.7446 22.6465 93.53 22.0503 93.53 21.2918C93.53 20.5131 93.7298 19.9011 94.1294 19.4558C94.5291 19.0104 95.0782 18.7877 95.7768 18.7877C96.4251 18.7877 96.9372 18.9788 97.3131 19.3609C97.689 19.7431 97.877 20.2689 97.877 20.9384V21.4857H94.6045C94.6193 21.9483 94.7481 22.3046 94.9909 22.5546C95.2336 22.8017 95.5755 22.9253 96.0165 22.9253C96.3066 22.9253 96.576 22.8994 96.8247 22.8477C97.0763 22.7931 97.3457 22.704 97.6328 22.5805V23.4037C97.3782 23.5215 97.1207 23.6048 96.8602 23.6536C96.5997 23.7025 96.3022 23.7269 95.9677 23.7269ZM95.7768 19.5549C95.4452 19.5549 95.1788 19.6569 94.9775 19.8609C94.7792 20.0649 94.6608 20.3623 94.6223 20.753H96.8513C96.8454 20.3594 96.7477 20.062 96.5583 19.8609C96.3688 19.6569 96.1083 19.5549 95.7768 19.5549Z" fill="white"/>
<path d="M101.554 23.7269C100.932 23.7269 100.449 23.51 100.106 23.0761H100.044C100.085 23.4784 100.106 23.7226 100.106 23.8088V25.7612H99.0626V18.8739H99.9062C99.9299 18.963 99.9787 19.1756 100.053 19.5118H100.106C100.432 19.0291 100.92 18.7877 101.571 18.7877C102.184 18.7877 102.661 19.0032 103.001 19.4342C103.344 19.8652 103.516 20.47 103.516 21.2487C103.516 22.0274 103.341 22.6351 102.992 23.0718C102.646 23.5085 102.166 23.7269 101.554 23.7269ZM101.3 19.6152C100.886 19.6152 100.583 19.733 100.39 19.9686C100.201 20.2043 100.106 20.5807 100.106 21.0978V21.2487C100.106 21.8291 100.201 22.25 100.39 22.5115C100.58 22.7701 100.889 22.8994 101.318 22.8994C101.679 22.8994 101.958 22.7557 102.153 22.4684C102.348 22.1811 102.446 21.7716 102.446 21.2401C102.446 20.7056 102.348 20.3019 102.153 20.029C101.961 19.7531 101.676 19.6152 101.3 19.6152Z" fill="white"/>
<path d="M106.873 23.7269C106.109 23.7269 105.511 23.5114 105.079 23.0804C104.65 22.6465 104.435 22.0503 104.435 21.2918C104.435 20.5131 104.635 19.9011 105.035 19.4558C105.434 19.0104 105.983 18.7877 106.682 18.7877C107.33 18.7877 107.842 18.9788 108.218 19.3609C108.594 19.7431 108.782 20.2689 108.782 20.9384V21.4857H105.51C105.525 21.9483 105.653 22.3046 105.896 22.5546C106.139 22.8017 106.481 22.9253 106.922 22.9253C107.212 22.9253 107.481 22.8994 107.73 22.8477C107.982 22.7931 108.251 22.704 108.538 22.5805V23.4037C108.284 23.5215 108.026 23.6048 107.765 23.6536C107.505 23.7025 107.207 23.7269 106.873 23.7269ZM106.682 19.5549C106.351 19.5549 106.084 19.6569 105.883 19.8609C105.684 20.0649 105.566 20.3623 105.528 20.753H107.757C107.751 20.3594 107.653 20.062 107.464 19.8609C107.274 19.6569 107.014 19.5549 106.682 19.5549Z" fill="white"/>
<path d="M110.47 23.6407H109.302L110.669 21.6883C110.338 21.5964 110.077 21.4326 109.888 21.197C109.698 20.9585 109.604 20.664 109.604 20.3134C109.604 19.8623 109.77 19.5104 110.101 19.2575C110.433 19.0018 110.885 18.8739 111.46 18.8739H113.698V23.6407H112.65V21.8047H111.66L110.47 23.6407ZM110.621 20.3221C110.621 20.5663 110.715 20.7502 110.905 20.8737C111.097 20.9944 111.355 21.0547 111.677 21.0547H112.65V19.6411H111.513C111.229 19.6411 111.008 19.7 110.851 19.8178C110.698 19.9356 110.621 20.1037 110.621 20.3221Z" fill="white"/>
<path d="M0 14.0538H7.68422C10.7148 14.0538 12.266 12.7216 12.266 10.1856V10.1461C12.266 8.26136 11.2798 7.11669 9.37926 6.79105V6.61343C10.9716 6.31739 11.8037 5.31086 11.8037 3.6728V3.62346C11.8037 1.39331 10.3552 0.23877 7.51985 0.23877H0V14.0538ZM3.03054 5.89307V2.19261H6.61582C8.06432 2.19261 8.78343 2.80442 8.78343 4.0083V4.04777C8.78343 5.27139 8.06432 5.89307 6.61582 5.89307H3.03054ZM3.03054 12.0901V7.68903H6.70828C8.3006 7.68903 9.09162 8.41925 9.09162 9.85009V9.88957C9.09162 11.35 8.3006 12.0901 6.70828 12.0901H3.03054Z" fill="white"/>
<path d="M15.1206 0.23877V14.0538H18.1101V0.23877H15.1206Z" fill="white"/>
<path d="M24.3651 14.3104C26.7793 14.3104 28.536 13.2743 29.1832 11.5178L29.3886 11.5671C28.9983 13.4815 29.4092 14.3104 31.772 14.3104C32.0699 14.3104 32.3678 14.2808 32.6144 14.2413L32.9636 12.5342L32.45 12.5243C31.885 12.5144 31.7206 12.3861 31.7206 11.6855V6.93907C31.7206 4.59051 30.0975 3.46557 26.6355 3.46557C22.9577 3.46557 21.0983 4.85694 21.2524 7.26471L24.2008 7.50154C24.0775 5.91281 24.9199 5.19245 26.5738 5.19245C28.0531 5.19245 28.7517 5.71545 28.7517 6.90946V7.49167L25.8342 8.0048C22.9166 8.5278 20.9853 9.41591 20.9853 11.5868V11.6164C20.9853 13.3335 22.1975 14.3104 24.3651 14.3104ZM25.5568 12.396C24.55 12.396 24.0056 12.0506 24.0056 11.3401V11.3204C24.0056 10.304 24.961 9.88956 26.8512 9.53432L28.7517 9.17908V9.6626C28.7517 11.2513 27.2621 12.396 25.5568 12.396Z" fill="white"/>
<path d="M35.4793 14.0538H38.4688V9.23828C38.4688 6.90946 39.6091 5.46875 41.4993 5.46875C42.9067 5.46875 43.6053 6.16937 43.6053 7.5114V14.0538H46.5947V6.82065C46.5947 4.64972 45.2695 3.50504 42.804 3.50504C40.5644 3.50504 39.0338 4.45236 38.1297 6.42594L37.9243 6.33712C38.3352 5.16285 38.479 4.46223 38.479 3.69253H35.4793V14.0538Z" fill="white"/>
<path d="M55.4899 14.3005C59.0136 14.3005 60.986 12.9387 61.2839 10.304L58.2636 9.97838C58.1403 11.6362 57.1952 12.475 55.5002 12.475C53.5997 12.475 52.6135 11.3303 52.6135 9.07053V8.587C52.6135 6.3766 53.6099 5.26152 55.4694 5.26152C57.185 5.26152 58.0787 6.17924 58.2123 8.01467L61.1914 7.68903C60.9552 4.89641 59.0546 3.44583 55.4796 3.44583C51.5964 3.44583 49.5521 5.27139 49.5521 8.76463V8.89291C49.5521 12.4453 51.5759 14.3005 55.4899 14.3005Z" fill="white"/>
<path d="M64.2618 14.0538H67.2513V9.23828C67.2513 6.90946 68.3813 5.47862 70.2818 5.47862C71.6892 5.47862 72.3878 6.16937 72.3878 7.5114V14.0538H75.3772V6.82065C75.3772 4.64972 74.0417 3.50504 71.5865 3.50504C69.3264 3.50504 67.806 4.45236 66.9123 6.41607L66.6965 6.33712C67.0972 5.23192 67.241 4.41289 67.2513 3.43597V0.23877H64.2618V14.0538Z" fill="white"/>
<path d="M81.5809 14.3104C83.9951 14.3104 85.7518 13.2743 86.399 11.5178L86.6044 11.5671C86.214 13.4815 86.625 14.3104 88.9878 14.3104C89.2857 14.3104 89.5836 14.2808 89.8301 14.2413L90.1794 12.5342L89.6658 12.5243C89.1008 12.5144 88.9364 12.3861 88.9364 11.6855V6.93907C88.9364 4.59051 87.3133 3.46557 83.8512 3.46557C80.1735 3.46557 78.3141 4.85694 78.4682 7.26471L81.4165 7.50154C81.2933 5.91281 82.1357 5.19245 83.7896 5.19245C85.2689 5.19245 85.9675 5.71545 85.9675 6.90946V7.49167L83.05 8.0048C80.1324 8.5278 78.2011 9.41591 78.2011 11.5868V11.6164C78.2011 13.3335 79.4133 14.3104 81.5809 14.3104ZM82.7726 12.396C81.7658 12.396 81.2214 12.0506 81.2214 11.3401V11.3204C81.2214 10.304 82.1767 9.88956 84.067 9.53432L85.9675 9.17908V9.6626C85.9675 11.2513 84.4779 12.396 82.7726 12.396Z" fill="white"/>
<path d="M92.6951 14.0538H95.6845V9.72181C95.6845 7.01801 96.5577 6.02135 98.8383 5.86347L100.307 5.75492L99.9581 3.36689C97.5439 3.54451 96.4242 4.27474 95.3147 6.42594L95.1195 6.33712C95.6023 4.95562 95.7153 4.40302 95.6948 3.69253H92.6951V14.0538Z" fill="white"/>
<path d="M106.912 14.2413C109.131 14.2413 110.579 13.2545 111.309 11.4684L111.524 11.5375C111.175 12.623 110.99 13.4815 110.98 14.0538H114V0.23877H111.011V3.05112C111.011 4.13659 111.165 5.01483 111.535 6.20884L111.329 6.28779C110.6 4.51157 109.141 3.4853 106.912 3.4853C103.83 3.4853 102.207 5.29113 102.207 8.74489V8.99159C102.207 12.4355 103.83 14.2413 106.912 14.2413ZM108.042 12.4651C106.193 12.4651 105.227 11.3303 105.227 9.09027V8.63634C105.227 6.38646 106.193 5.24179 108.042 5.24179C109.973 5.24179 111.011 6.44567 111.011 8.68568V9.04093C111.011 11.2711 109.973 12.4651 108.042 12.4651Z" fill="white"/>
</svg>
